<?xml version="1.0" encoding="UTF-8"?>
<svg width="100px" height="50px" viewBox="0 0 100 50" version="1.1" xmlns="http://www.w3.org/2000/svg" xmlns:xlink="http://www.w3.org/1999/xlink">
    <!-- Generator: Sketch 48.2 (47327) - http://www.bohemiancoding.com/sketch -->
    <title>svg/puma_logo_footer</title>
    <desc>Created with Sketch.</desc>
    <defs></defs>
    <g id="0X-Modul-Lib_Desktop" stroke="none" stroke-width="1" fill="none" fill-rule="evenodd" transform="translate(-192.000000, -1631.000000)">
        <g id="M-02-Footer_desktop" transform="translate(0.000000, 1596.000000)">
            <g id="puma_logo_footer" transform="translate(192.000000, 35.000000)">
                <path d="M53.8688826,0.309451839 C53.5441518,0.373680213 53.2194209,1.52822441 52.5715434,2.17050816 C52.1169202,2.62010679 51.5324047,2.62010679 51.209258,3.13393378 C51.0793656,3.32661891 51.1443118,3.71198916 51.0144195,4.03313103 C50.7546348,4.73964315 49.8453885,4.80387153 49.8453885,5.50881711 C49.8453885,6.2795576 50.6247425,6.47224273 51.2726201,7.04873156 C51.7921894,7.49833018 51.8571356,7.81947205 52.441651,8.01215718 C52.9612203,8.2048423 53.7389902,7.62678693 54.453398,7.81947205 C55.0379135,8.01215718 55.622429,8.14061393 55.7507373,8.7186693 C55.8790455,9.29672467 55.7507373,10.130127 55.0363295,10.0016703 C54.7765448,10.0016703 53.7389902,9.6163 52.5050131,9.74475675 C50.9478893,9.93744188 49.1943428,10.3870405 49.0644505,12.1196401 C48.9995044,13.0830657 50.1685353,14.1733815 51.271036,13.9806964 C52.05039,13.8522396 51.660713,12.888814 52.1153362,12.4407819 C52.6998516,11.8627266 55.8790455,14.430295 58.864985,14.430295 C60.0973781,14.430295 61.0715705,14.1091531 61.9808168,13.1472941 C62.045763,13.0830657 62.1756553,12.8903806 62.3055476,12.8903806 C62.43544,12.8903806 62.6302785,13.0188373 62.6952246,13.0830657 C65.0966486,15.0083504 66.9135571,18.796258 75.6765371,18.8604863 C76.9089301,18.8604863 78.3377457,19.4385417 79.5051926,20.4646292 C80.5443312,21.4280548 81.1272627,22.9037409 81.7117781,24.3794269 C82.6210244,26.6258535 84.1781483,28.8080517 86.5795723,31.182935 C86.7094646,31.3113918 88.6562655,32.8513062 88.851104,32.9155346 C88.851104,32.9155346 89.0459425,33.3009049 88.9809963,33.49359 C88.9160501,34.9692761 88.7212116,39.1425539 91.9019896,39.335239 C92.6813436,39.3994674 92.4865051,38.821412 92.4865051,38.4360417 C92.4865051,37.7295296 92.3566127,36.9603557 92.7462897,36.2538435 C93.265859,35.2261895 91.6422049,34.7781575 91.6422049,32.5317309 C91.7071511,30.8633597 90.2799196,31.1202732 89.5655118,29.8999341 C89.1758348,29.193422 88.7861578,28.7438233 88.7861578,27.8461926 C88.9160501,22.7752841 87.682073,19.4385417 87.0991416,18.6678012 C86.6445185,18.0255175 86.1898953,17.8328323 86.6445185,17.5116905 C89.3057271,15.7790909 89.8902426,14.1733815 89.8902426,14.1733815 C91.3174741,10.899301 92.5514512,7.88370043 94.3034136,6.59913293 C94.6281444,6.34221943 95.5358067,5.63570731 96.1203221,5.38036036 C97.7423922,4.60961986 98.5866923,4.16158778 99.0413154,3.71198916 C99.7557232,3.00547703 100.403601,1.46556259 99.6907771,0.566365338 C98.7815308,-0.589745409 97.2893531,0.309451839 96.5749453,0.759050462 C91.7071511,3.64776078 90.9927433,8.65444093 89.3057271,11.5415847 C87.9434417,13.8522396 85.8002183,15.5848392 83.8534175,15.713296 C82.3612398,15.8417527 80.8025318,15.5206108 79.245408,14.8140987 C75.4167524,13.1457275 73.3384752,11.0277577 72.8204899,10.6423875 C71.7813513,9.87164696 63.8642556,2.10627979 57.3728073,1.78513791 C57.3728073,1.78513791 56.5934533,0.180995089 56.3986149,0.180995089 C55.9439917,0.116766714 55.4244224,1.14442071 55.1012756,1.27287746 C54.7115986,1.46556259 54.1920293,0.245223464 53.8688826,0.309451839 Z M25.5064177,46.5241173 C24.9039929,46.5069329 24.4197094,46.0280018 24.4023329,45.432235 L24.4023329,25.4697428 L17.7176302,25.4697428 L17.7176302,47.4859764 C17.7176302,48.5778588 18.6268765,49.4754895 19.6644311,49.4754895 L31.216928,49.4754895 C32.3210127,49.4754895 33.1637288,48.5762922 33.1637288,47.4859764 L33.1637288,25.4697428 L26.6089184,25.4697428 L26.6089184,45.432235 C26.591542,46.0280018 26.1072585,46.5069329 25.5048337,46.5241173 L25.5064177,46.5241173 Z M47.7037492,25.4713093 L37.64343,25.4713093 C36.4743991,25.4713093 35.5017907,26.4347349 35.5017907,27.5892791 L35.5017907,49.4128277 L42.1215472,49.4128277 L42.1215472,29.4503355 C42.1215472,28.8080517 42.6411165,28.3584531 43.225632,28.3584531 C43.8750936,28.3584531 44.3297168,28.8080517 44.3297168,29.4503355 L44.3297168,49.477056 L50.9494733,49.477056 L50.9494733,29.3861071 C50.9494733,28.8080517 51.4690426,28.2942247 52.0535581,28.2942247 C52.6380736,28.2942247 53.1576429,28.8080517 53.1576429,29.3861071 L53.1576429,49.4128277 L59.7773994,49.4128277 L59.7773994,27.5892791 C59.7773994,26.3705066 58.803207,25.4713093 57.6357601,25.4713093 L47.7053332,25.4713093 L47.7037492,25.4713093 Z M13.3044592,43.3784935 L6.61975653,43.3784935 L6.61975653,49.4112611 L0,49.4112611 L0,25.4697428 L13.3694054,25.4697428 C14.5384363,25.4697428 15.5110447,26.4331684 15.5110447,27.651941 L15.5110447,41.2589571 C15.5110447,42.4777297 14.5368523,43.376927 13.3044592,43.376927 L13.3044592,43.3784935 Z M8.8912882,29.4503355 C8.8912882,28.8080517 8.37171889,28.2942247 7.78720342,28.2942247 L6.68311864,28.2942247 L6.68311864,40.4255548 L7.78720342,40.4255548 C8.37171889,40.4255548 8.8912882,39.9759562 8.8912882,39.2694441 L8.8912882,29.4487689 L8.8912882,29.4503355 Z M70.3925715,49.5412844 L70.3925715,43.5307684 L68.1125085,43.5307684 L68.1125085,49.5412844 L61.4678899,49.5412844 L61.4678899,27.7982312 C61.4678899,26.583954 62.4457412,25.6880734 63.6175727,25.6880734 L74.8223173,25.6880734 C75.9957388,25.6880734 76.9720001,26.6479455 76.9720001,27.7982312 L76.9720001,49.5412844 L70.3925715,49.5412844 Z M70.3925715,40.5871608 L70.3925715,29.6524231 C70.3925715,29.0764998 69.8710508,28.5645681 69.2843401,28.5645681 C68.6976293,28.5645681 68.1761086,29.0764998 68.1761086,29.6524231 L68.1761086,40.6511522 L70.3909815,40.5871608 L70.3925715,40.5871608 Z" id="Shape" fill="#FFFFFE" fill-rule="nonzero"></path>
                <circle id="Oval" stroke="#FFFFFE" stroke-width="0.5" cx="83" cy="46" r="3"></circle>
                <text id="R" font-family="DINPro-Bold, DIN Pro" font-size="4" font-weight="bold" letter-spacing="-0.117647059" fill="#FFFFFF">
                    <tspan x="81.7000122" y="47.5">R</tspan>
                </text>
            </g>
        </g>
    </g>
</svg>
